<svg id="visual" viewBox="0 0 900 600" width="900" height="600" xmlns="http://www.w3.org/2000/svg" xmlns:xlink="http://www.w3.org/1999/xlink" version="1.1"><path d="M0 229L82 229L82 109L164 109L164 115L245 115L245 103L327 103L327 115L409 115L409 313L491 313L491 247L573 247L573 115L655 115L655 133L736 133L736 169L818 169L818 151L900 151L900 229L900 0L900 0L818 0L818 0L736 0L736 0L655 0L655 0L573 0L573 0L491 0L491 0L409 0L409 0L327 0L327 0L245 0L245 0L164 0L164 0L82 0L82 0L0 0Z" fill="#2a9fde"></path><path d="M0 379L82 379L82 199L164 199L164 193L245 193L245 259L327 259L327 175L409 175L409 379L491 379L491 337L573 337L573 217L655 217L655 199L736 199L736 247L818 247L818 235L900 235L900 331L900 227L900 149L818 149L818 167L736 167L736 131L655 131L655 113L573 113L573 245L491 245L491 311L409 311L409 113L327 113L327 101L245 101L245 113L164 113L164 107L82 107L82 227L0 227Z" fill="#74b4e4"></path><path d="M0 439L82 439L82 235L164 235L164 259L245 259L245 349L327 349L327 223L409 223L409 427L491 427L491 385L573 385L573 253L655 253L655 289L736 289L736 313L818 313L818 307L900 307L900 397L900 329L900 233L818 233L818 245L736 245L736 197L655 197L655 215L573 215L573 335L491 335L491 377L409 377L409 173L327 173L327 257L245 257L245 191L164 191L164 197L82 197L82 377L0 377Z" fill="#a4c9ea"></path><path d="M0 535L82 535L82 487L164 487L164 511L245 511L245 541L327 541L327 535L409 535L409 535L491 535L491 517L573 517L573 511L655 511L655 487L736 487L736 493L818 493L818 493L900 493L900 511L900 395L900 305L818 305L818 311L736 311L736 287L655 287L655 251L573 251L573 383L491 383L491 425L409 425L409 221L327 221L327 347L245 347L245 257L164 257L164 233L82 233L82 437L0 437Z" fill="#cedff0"></path><path d="M0 601L82 601L82 601L164 601L164 601L245 601L245 601L327 601L327 601L409 601L409 601L491 601L491 601L573 601L573 601L655 601L655 601L736 601L736 601L818 601L818 601L900 601L900 601L900 509L900 491L818 491L818 491L736 491L736 485L655 485L655 509L573 509L573 515L491 515L491 533L409 533L409 533L327 533L327 539L245 539L245 509L164 509L164 485L82 485L82 533L0 533Z" fill="#f6f6f6"></path></svg>